<svg t="1714227332441" class="icon" viewBox="0 0 1024 1024" version="1.1" xmlns="http://www.w3.org/2000/svg" p-id="1715"
    width="200" height="200">
    <path
        d="M989.909512 764.703217c0 55.091465-45.052648 100.225465-100.188857 100.2336l-745.809252 0.252191c-55.111803 0.01627-100.241736-45.048581-100.241736-100.168519l-0.178974-541.152432C43.470355 168.760322 88.527071 123.654795 143.647009 123.638525l745.849928-0.252191c55.087398-0.024406 100.196992 45.064851 100.221398 100.148181l0.191177 541.168702z"
        fill="#F0F0FF" p-id="1716"></path>
    <path d="M43.531369 282.681369h946.243912v158.514058H43.531369z" fill="#6E6E96" p-id="1717"></path>
    <path
        d="M877.778205 809.467066l-716.368022 0.207447c-52.939709 0.008135-96.283969-36.120216-96.283968-80.310535l-0.154569-372.359569c0 0.138298-0.024406 0.268461-0.024406 0.414895l0.178975 433.890032c0 44.194386 43.34426 80.334941 96.283968 80.314602l716.368022-0.203379c52.955979-0.008135 96.227022-36.185298 96.227022-80.359347l-0.028473-61.546733c-0.272529 43.982872-43.413409 79.94852-96.198549 79.952587z"
        fill="#6E6E96" opacity=".15" p-id="1718"></path>
    <path
        d="M158.989966 175.41897l716.372089-0.207447c52.947844-0.008135 96.292104 38.491623 96.292104 85.60654l0.146434 396.911553c0-0.154568 0.024406-0.288799 0.024405-0.4393l-0.170839-462.517744c0-47.11085-43.34426-85.618743-96.292104-85.60654l-716.372089 0.21965c-52.947844 0.004068-96.222955 38.58111-96.222955 85.667554l0.020338 65.602123c0.276596-46.887132 43.425612-85.228254 96.202617-85.236389z"
        fill="#FFFFFF" opacity=".99" p-id="1719"></path>
    <path d="M62.677524 441.183224h908.028886v22.721569H62.677524z" fill="#FFFFFF" opacity=".39" p-id="1720"></path>
    <path d="M62.628713 282.681369h898.152773v24.226578H62.628713z" fill="#0A0A0A" opacity=".12" p-id="1721"></path>
    <path
        d="M970.812168 764.703217c0 44.731309-36.36834 81.115918-81.091513 81.124053l-745.81332 0.252191c-21.566372 0.004068-41.916535-8.464659-57.300167-23.840156-15.367362-15.363295-23.832021-35.680916-23.832022-57.214749l-0.183041-541.156499c-0.008135-21.558237 8.452456-41.896197 23.819818-57.275762 15.35516-15.375498 35.684984-23.844224 57.235086-23.848291l745.853996-0.252191c44.702835-0.020338 81.09558 36.339866 81.111851 81.054905 0.012203-0.008135 0.199312 541.164634 0.199312 541.156499z m38.015714-541.176837c-0.028473-65.781097-53.562051-119.269931-119.335012-119.241458L143.647009 104.537113c-31.747555 0.004068-61.676897 12.459034-84.252032 35.042304-22.587338 22.595473-35.013831 52.528882-35.001628 84.292708l0.183041 541.152431c0 31.73942 12.434629 61.640288 35.021967 84.231694 22.603608 22.599541 52.545153 35.038237 84.321181 35.030102l745.809252-0.256258c65.772962-0.004068 119.278066-53.533577 119.278066-119.326877 0.008135-0.008135-0.178974-541.176837-0.178974-541.176837z"
        fill="#6E6E96" p-id="1722"></path>
    <path d="M169.891112 418.453521l111.541507-111.549642h18.922437l-111.541506 111.549642z" fill="#F0F0FF"
        opacity=".11" p-id="1723"></path>
    <path
        d="M270.970772 418.453521L382.516346 306.903879h98.728591l-111.545573 111.549642zM432.584335 418.453521l111.541506-111.549642h57.710995l-111.549642 111.549642z"
        fill="#F0F0FF" opacity=".2" p-id="1724"></path>
    <path
        d="M131.903871 557.5733H292.988647v38.202824H131.903871zM131.903871 664.19302h258.060236v38.206891H131.903871z"
        fill="#6E6E96" p-id="1725"></path>
    <path
        d="M739.297037 623.049327m-72.081796 0a72.081797 72.081797 0 1 0 144.163593 0 72.081797 72.081797 0 1 0-144.163593 0Z"
        fill="#FF5F81" p-id="1726"></path>
    <path
        d="M838.505605 623.049327m-72.081797 0a72.081797 72.081797 0 1 0 144.163594 0 72.081797 72.081797 0 1 0-144.163594 0Z"
        fill="#FFB01F" opacity=".53" p-id="1727"></path>
</svg>
