<svg t="1714227441684" class="icon" viewBox="0 0 1325 1024" version="1.1" xmlns="http://www.w3.org/2000/svg" p-id="1438"
    width="200" height="200">
    <path
        d="M548.141176 617.411765c-3.011765 3.011765-9.035294 3.011765-13.552941 3.011764-10.541176 0-19.576471-6.023529-24.094117-15.058823l-3.011765-3.011765-76.8-167.152941c-1.505882-3.011765-1.505882-3.011765-1.505882-6.023529 0-7.529412 6.023529-15.058824 15.058823-15.058824 3.011765 0 6.023529 1.505882 9.035294 3.011765l90.352941 64.752941c6.023529 4.517647 15.058824 7.529412 22.588236 7.529412 4.517647 0 9.035294-1.505882 15.058823-3.011765l426.164706-188.235294C929.129412 209.317647 804.141176 150.588235 662.588235 150.588235c-231.905882 0-421.647059 156.611765-421.647059 349.364706 0 105.411765 57.223529 198.776471 146.070589 262.02353 7.529412 4.517647 12.047059 13.552941 12.047059 22.588235 0 3.011765-1.505882 6.023529-1.505883 9.035294-7.529412 25.6-18.070588 67.764706-19.57647 70.776471-1.505882 3.011765-3.011765 7.529412-3.011765 10.541176 0 7.529412 6.023529 15.058824 15.058823 15.058824 3.011765 0 6.023529-1.505882 9.035295-3.011765l93.364705-52.705882c7.529412-3.011765 15.058824-6.023529 22.588236-6.02353 4.517647 0 9.035294 1.505882 12.047059 3.011765 43.670588 12.047059 88.847059 19.576471 137.035294 19.57647 231.905882 0 421.647059-156.611765 421.647058-349.364705 0-58.729412-16.564706-112.941176-48.188235-161.129412L549.647059 614.4l-1.505883 3.011765z"
        fill="#3BCA72" p-id="1439"></path>
</svg>
